<svg xmlns="http://www.w3.org/2000/svg" viewBox="0 0 23.36 23.36"><defs><style>.cls-1{fill:#b2b2b2;}</style></defs><title>Ресурс 12</title><g id="Слой_2" data-name="Слой 2"><g id="Слой_1-2" data-name="Слой 1"><path class="cls-1" d="M18.86,16.67h-1.7c-.65,0-.84-.52-2-1.67-1-1-1.44-1.1-1.69-1.1S13,14,13,14.48V16c0,.42-.13.66-1.22.66a6.65,6.65,0,0,1-5.19-3.12c-2.11-3-2.69-5.19-2.69-5.65,0-.25.1-.48.58-.48H6.21c.43,0,.6.19.76.66.83,2.43,2.24,4.55,2.81,4.55.22,0,.32-.1.32-.65V9.47C10,8.32,9.42,8.22,9.42,7.81a.42.42,0,0,1,.44-.39h2.67c.36,0,.49.2.49.63v3.37c0,.36.16.49.27.49s.39-.13.79-.52A14,14,0,0,0,16.17,7.9a.74.74,0,0,1,.74-.48h1.71c.51,0,.62.27.51.63A21,21,0,0,1,16.84,12c-.18.29-.25.44,0,.76s.78.76,1.17,1.23a7.24,7.24,0,0,1,1.44,2c.14.48-.1.72-.59.72M15.26,0H8.1C1.56,0,0,1.56,0,8.1v7.16c0,6.54,1.56,8.1,8.1,8.1h7.16c6.54,0,8.1-1.56,8.1-8.1V8.1c0-6.54-1.56-8.1-8.1-8.1"/></g></g></svg>