<svg xmlns="http://www.w3.org/2000/svg" viewBox="0 0 22.79 22.79"><defs><style>.cls-1{fill:#b2b2b2;}</style></defs><title>Ресурс 14</title><g id="Слой_2" data-name="Слой 2"><g id="Слой_1-2" data-name="Слой 1"><path class="cls-1" d="M21.53,0H1.26A1.25,1.25,0,0,0,0,1.26V21.53a1.25,1.25,0,0,0,1.26,1.26H12.17V14h-3V10.53h3V8c0-2.94,1.8-4.55,4.43-4.55a24.4,24.4,0,0,1,2.65.14V6.65H17.43c-1.43,0-1.71.67-1.71,1.67v2.2h3.41L18.69,14h-3v8.82h5.81a1.25,1.25,0,0,0,1.26-1.26V1.26A1.25,1.25,0,0,0,21.53,0"/></g></g></svg>