<svg xmlns="http://www.w3.org/2000/svg" viewBox="0 0 78.14 115.14"><defs><style>.cls-1{fill:#75cb06;}.cls-2{fill:#1c1c1c;}</style></defs><title>Ресурс 23</title><g id="Слой_2" data-name="Слой 2"><g id="Слой_1-2" data-name="Слой 1"><path class="cls-1" d="M31.89,108.06c-11.75,0-21.26-8.73-21.26-19.49,0-8.48,5.92-15.67,14.17-18.35V13.33a6.24,6.24,0,0,1,6.25-6.24h1.67A6.24,6.24,0,0,1,39,13.33V70.22c8.25,2.68,14.17,9.87,14.17,18.35,0,10.76-9.52,19.49-21.25,19.49M46.06,65.57V12.5A12.5,12.5,0,0,0,33.56,0H30.21A12.5,12.5,0,0,0,17.72,12.5V65.57c-8.47,4.61-14.18,13.19-14.18,23,0,14.65,12.72,26.57,28.35,26.57s28.34-11.92,28.34-26.57c0-9.81-5.71-18.39-14.17-23"/><path class="cls-1" d="M31.89,104.51c-9.77,0-17.72-7.15-17.72-15.94,0-6.69,4.71-12.71,11.72-15l2.45-.8v-24a2.71,2.71,0,0,1,2.71-2.7h1.67a2.71,2.71,0,0,1,2.71,2.7v24l2.45.8c7,2.27,11.72,8.29,11.72,15,0,8.79-8,15.94-17.71,15.94"/><path class="cls-1" d="M11.67,18.38H2.5A2.5,2.5,0,0,1,0,15.88v-.31a2.5,2.5,0,0,1,2.5-2.5h9.17a2.5,2.5,0,0,1,2.5,2.5v.31a2.5,2.5,0,0,1-2.5,2.5"/><path class="cls-1" d="M11.67,29H2.5A2.5,2.5,0,0,1,0,26.51V26.2a2.5,2.5,0,0,1,2.5-2.5h9.17a2.5,2.5,0,0,1,2.5,2.5v.31a2.5,2.5,0,0,1-2.5,2.5"/><path class="cls-1" d="M11.67,39.64H2.5A2.5,2.5,0,0,1,0,37.14v-.31a2.5,2.5,0,0,1,2.5-2.5h9.17a2.5,2.5,0,0,1,2.5,2.5v.31a2.5,2.5,0,0,1-2.5,2.5"/><path class="cls-1" d="M11.67,50.27H2.5A2.5,2.5,0,0,1,0,47.77v-.32A2.5,2.5,0,0,1,2.5,45h9.17a2.5,2.5,0,0,1,2.5,2.5v.32a2.5,2.5,0,0,1-2.5,2.5"/><path class="cls-1" d="M61.27,18.38H52.1a2.5,2.5,0,0,1-2.5-2.5v-.31a2.5,2.5,0,0,1,2.5-2.5h9.17a2.5,2.5,0,0,1,2.5,2.5v.31a2.5,2.5,0,0,1-2.5,2.5"/><path class="cls-1" d="M61.27,29H52.1a2.5,2.5,0,0,1-2.5-2.5V26.2a2.5,2.5,0,0,1,2.5-2.5h9.17a2.5,2.5,0,0,1,2.5,2.5v.31a2.5,2.5,0,0,1-2.5,2.5"/><path class="cls-1" d="M61.27,39.64H52.1a2.5,2.5,0,0,1-2.5-2.5v-.31a2.5,2.5,0,0,1,2.5-2.5h9.17a2.5,2.5,0,0,1,2.5,2.5v.31a2.5,2.5,0,0,1-2.5,2.5"/><path class="cls-1" d="M61.27,50.27H52.1a2.5,2.5,0,0,1-2.5-2.5v-.32A2.5,2.5,0,0,1,52.1,45h9.17a2.5,2.5,0,0,1,2.5,2.5v.32a2.5,2.5,0,0,1-2.5,2.5"/><path class="cls-2" d="M56.59,88.24h0c5,0,9.66-1.65,14.62-3.4l2.11-.74.58,1.79,4.24-4.68L72,79.88l.58,1.8-2.19.77c-4.74,1.67-9.22,3.26-13.77,3.26a28.6,28.6,0,0,1-7.69-1.43A17.66,17.66,0,0,1,49.35,87a28.14,28.14,0,0,0,7.24,1.2"/><path class="cls-2" d="M72.55,94.62l-2.18.76c-4.75,1.68-9.23,3.26-13.78,3.26a33.6,33.6,0,0,1-9.31-1.92,18.17,18.17,0,0,1-1.45,2.2c3.68,1.15,7.44,2.26,10.76,2.26,5,0,9.66-1.66,14.62-3.41L73.32,97l.58,1.8,4.24-4.69L72,92.81Z"/><path class="cls-2" d="M23.91,71.66a29.11,29.11,0,0,1,9.69-1.38c3.4,0,7.42,1.26,11.32,2.49S53,75.31,56.59,75.31h0c5,0,9.66-1.66,14.62-3.41l2.11-.74L73.9,73l4.24-4.68L72,66.94l.58,1.81-2.18.76c-4.75,1.68-9.23,3.26-13.78,3.26h0c-3.21,0-7-1.17-10.91-2.42s-8.3-2.61-12.08-2.61a31.7,31.7,0,0,0-10.43,1.5,1.27,1.27,0,0,0,.74,2.42"/><path class="cls-2" d="M32.16,99.91a11.5,11.5,0,1,1,11.5-11.5,11.5,11.5,0,0,1-11.5,11.5m0-25.87A14.37,14.37,0,1,0,46.53,88.41,14.37,14.37,0,0,0,32.16,74"/><path class="cls-2" d="M34.59,93.36a2.92,2.92,0,0,1-2.65,2.24,2.58,2.58,0,0,1-2.15-1.89A1.71,1.71,0,0,1,30,92.09s.49.47.82.49c.24-.39-.11-.63-.12-1a1.33,1.33,0,0,1,.52-1.09c.46-.46.9-1,.54-1.64.94.63,1.67,1.08,1.15,2.49.51-.26.84-.46.84-1,.4.68,1.08,2.22.84,3m1.67-9.86c0,1.49-.87,2-2.17,2.68,1.34-3.62-.55-4.77-3-6.39.9,1.65-.22,3-1.41,4.21a3.5,3.5,0,0,0-1.33,2.82c0,.85.92,1.44.31,2.46-.85,0-2.11-1.26-2.11-1.26a4.46,4.46,0,0,0-.55,4.17C27,94.6,28.94,97.05,31.59,97c4.49,0,6.35-4.15,6.83-5.76.61-2.08-1.15-6-2.16-7.77"/></g></g></svg>