<svg xmlns="http://www.w3.org/2000/svg" viewBox="0 0 23.36 23.36"><defs><style>.cls-1{fill:#6cb535;}</style></defs><title>Ресурс 16</title><g id="Слой_2" data-name="Слой 2"><g id="Слой_1-2" data-name="Слой 1"><path class="cls-1" d="M18.2,6.94a6.74,6.74,0,0,0,2-.55A7,7,0,0,1,18.46,8.2c0,.15,0,.31,0,.46A9.95,9.95,0,0,1,3.16,17a7.55,7.55,0,0,0,.83.05,7,7,0,0,0,4.35-1.5,3.49,3.49,0,0,1-3.27-2.43,3.62,3.62,0,0,0,1.58-.06A3.51,3.51,0,0,1,3.84,9.67V9.62a3.29,3.29,0,0,0,1.59.44A3.51,3.51,0,0,1,4.34,5.39a10,10,0,0,0,7.21,3.66,3.5,3.5,0,0,1,6-3.19A7,7,0,0,0,19.73,5,3.47,3.47,0,0,1,18.2,6.94m5.16,8.32V8.1c0-6.54-1.56-8.1-8.1-8.1H8.1C1.56,0,0,1.56,0,8.1v7.16c0,6.54,1.56,8.1,8.1,8.1h7.16c6.54,0,8.1-1.56,8.1-8.1"/></g></g></svg>