<svg xmlns="http://www.w3.org/2000/svg" viewBox="0 0 55.76 23.65"><defs><style>.cls-1{fill:#b2b2b2;}</style></defs><title>Ресурс 19</title><g id="Слой_2" data-name="Слой 2"><g id="Слой_1-2" data-name="Слой 1"><path class="cls-1" d="M20.81,19.14H18.7V17.89c-.8.94-1.48,1.41-2.22,1.41a1.33,1.33,0,0,1-1.33-.87,4.6,4.6,0,0,1-.24-1.67v-9H17V17c0,.32.18.43.45.43s.77-.35,1.22-1V7.71h2.11Z"/><path class="cls-1" d="M11.24,15.74c.11,1.14-.23,1.7-.89,1.7s-1-.56-.89-1.7V11.22c-.11-1.13.23-1.66.89-1.66s1,.53.89,1.66Zm2.12-4.29a4.68,4.68,0,0,0-.67-2.72,2.8,2.8,0,0,0-2.34-1.1A2.66,2.66,0,0,0,8,8.73a4.65,4.65,0,0,0-.66,2.73v4.06A4.21,4.21,0,0,0,8,18.14a2.91,2.91,0,0,0,2.36,1.19,3,3,0,0,0,2.38-1.19,4.28,4.28,0,0,0,.63-2.62Z"/><path class="cls-1" d="M5,12.92v6.22H2.78V12.92S.48,5.29,0,3.87H2.34l1.56,6,1.55-6H7.79Z"/><path class="cls-1" d="M42.56,9.53a1.57,1.57,0,0,0-1.05.52v6.86a1.55,1.55,0,0,0,1.05.51c.58,0,.85-.43.85-1.56V11c0-1.13-.27-1.46-.85-1.46"/><path class="cls-1" d="M50.86,10.89c0-1.05-.26-1.36-.93-1.36s-1,.29-1,1.35v1.25h1.89Z"/><path class="cls-1" d="M50,17.42c.49,0,.78-.27.9-.82,0-.11,0-.6,0-1.42H53v.32c0,.66-.06,1.13-.07,1.33a2.89,2.89,0,0,1-.48,1.23A2.75,2.75,0,0,1,50,19.28a2.86,2.86,0,0,1-2.44-1.15,4.24,4.24,0,0,1-.7-2.61v-4a4.65,4.65,0,0,1,.67-2.71A2.88,2.88,0,0,1,50,7.66a2.81,2.81,0,0,1,2.38,1.19A4.48,4.48,0,0,1,53,11.51v2.31H49v2c0,1,.29,1.57,1,1.57m-4.43-1.68A9.13,9.13,0,0,1,45.3,18a1.66,1.66,0,0,1-1.66,1.27A2.82,2.82,0,0,1,41.52,18v1.14h-2V4h2V8.92a2.88,2.88,0,0,1,2.13-1.27A1.64,1.64,0,0,1,45.25,9a7.9,7.9,0,0,1,.27,2.26Zm-7.68,3.4H35.73V17.89c-.81.94-1.48,1.41-2.23,1.41a1.31,1.31,0,0,1-1.32-.87,4.6,4.6,0,0,1-.24-1.67V7.83h2.12V17c0,.32.18.43.45.43s.77-.36,1.22-1V7.83h2.11Zm-8,0H27.6v-13H25.26V4h7V6.13H29.83Zm25.6-14a7.28,7.28,0,0,0-1.32-3.34A4.76,4.76,0,0,0,50.78.34C46.13,0,39.15,0,39.15,0h0s-7,0-11.63.34a4.77,4.77,0,0,0-3.33,1.42A7.28,7.28,0,0,0,22.86,5.1a51.76,51.76,0,0,0-.33,5.44v2.55a51.83,51.83,0,0,0,.33,5.45,7.26,7.26,0,0,0,1.32,3.33,5.62,5.62,0,0,0,3.67,1.44c2.65.26,11.3.34,11.3.34s7,0,11.63-.35a4.73,4.73,0,0,0,3.33-1.43,7.26,7.26,0,0,0,1.32-3.33,51.83,51.83,0,0,0,.33-5.45V10.54a51.76,51.76,0,0,0-.33-5.44"/></g></g></svg>