<svg xmlns="http://www.w3.org/2000/svg" viewBox="0 0 8.22 8.24"><defs><style>.cls-1{fill:#666;}</style></defs><title>Ресурс 11</title><g id="Слой_2" data-name="Слой 2"><g id="Слой_1-2" data-name="Слой 1"><path class="cls-1" d="M6.85,7.26a.49.49,0,0,1-.31-.19h0L4.89,5.38a.38.38,0,0,1-.15-.26A.25.25,0,0,1,4.82,5l.07-.07a.29.29,0,0,1,.21-.1.47.47,0,0,1,.29.16h0L7.08,6.67a.43.43,0,0,1,.14.25.23.23,0,0,1-.08.16h0l-.08.08a.26.26,0,0,1-.2.1M2.37,3.78a1.37,1.37,0,0,1-1-.42,1.36,1.36,0,0,1-.42-1A1.42,1.42,0,0,1,2.37,1a1.42,1.42,0,0,1,1,.41,1.44,1.44,0,0,1,.41,1A1.42,1.42,0,0,1,2.37,3.78M6.89,8.24a1.18,1.18,0,0,0,.86-.37l.08-.08a1.24,1.24,0,0,0,.39-.88A1.31,1.31,0,0,0,7.78,6L6.14,4.29h0a1.75,1.75,0,0,0-.79-.45,1,1,0,0,0-.27,0,1.12,1.12,0,0,0-.56.15l-.06-.07L4.3,3.73a2.32,2.32,0,0,0,.43-1.36A2.37,2.37,0,0,0,4,.69,2.31,2.31,0,0,0,2.37,0,2.34,2.34,0,0,0,.7.69,2.35,2.35,0,0,0,.7,4a2.34,2.34,0,0,0,1.67.69A2.25,2.25,0,0,0,3.73,4.3l.17.16L4,4.5a1.21,1.21,0,0,0-.18.63.76.76,0,0,0,0,.17,1.32,1.32,0,0,0,.41.79L5.84,7.78a1.54,1.54,0,0,0,1,.46"/></g></g></svg>